<svg width="256" height="256" xmlns="http://www.w3.org/2000/svg" xmlns:xlink="http://www.w3.org/1999/xlink"><use xlink:href="#a" fill="#111"/><g transform="translate(-4499 -1304)"><mask id="c"><use xlink:href="#b" fill="#fff" transform="translate(4597 1402)"/></mask><g mask="url(#c)"><use xlink:href="#d" transform="translate(4597 1402)" fill="#FFF"/></g></g><defs><path id="a" d="M256 128c0 70.692-57.308 128-128 128C57.308 256 0 198.692 0 128 0 57.308 57.308 0 128 0c70.692 0 128 57.308 128 128z"/><path id="b" d="M0 0h60v60H0V0z"/><path id="d" d="M0 0v-10h-10V0H0zm60 0h10v-10H60V0zm0 60v10h10V60H60zM0 60h-10v10H0V60zm0-50h60v-20H0v20zM50 0v60h20V0H50zm10 50H0v20h60V50zM10 60V0h-20v60h20z"/></defs></svg>